<svg xmlns="http://www.w3.org/2000/svg" width="35" height="35" viewBox="0 0 20 20" fill="#e3e3e3"><path d="M4.24,6H1.92A1.92,1.92,0,0,0,0,7.92v4.16A1.92,1.92,0,0,0,1.92,14H4.24a4.35,4.35,0,0,0,4.13,3H11V3H8.37A4.35,4.35,0,0,0,4.24,6ZM4,13H1.92A.92.92,0,0,1,1,12.08V7.92A.92.92,0,0,1,1.92,7H4v6Zm6,3H8.37A3.37,3.37,0,0,1,5,12.63V7.37A3.37,3.37,0,0,1,8.37,4H10Z"></path><path d="M17,3.33l-.67.74a8,8,0,0,1,0,11.86l.67.74A9,9,0,0,0,17,3.33Z"></path><path d="M13.9,5.44l-.65.76a5,5,0,0,1,0,7.6l.65.76a6,6,0,0,0,0-9.12Z"></path></svg>